<svg width="88" height="51" viewBox="0 0 88 51" fill="none" xmlns="http://www.w3.org/2000/svg">
<mask id="path-1-inside-1" fill="white">
<path fill-rule="evenodd" clip-rule="evenodd" d="M15.9613 0C7.67703 0 0.961304 6.71573 0.961304 15V35.1162C0.961304 43.4005 7.67705 50.1162 15.9613 50.1162H28.7276C31.3636 50.1162 33.5005 47.9793 33.5005 45.3433C33.5005 39.6203 38.14 34.9808 43.863 34.9808C49.586 34.9808 54.2255 39.6203 54.2255 45.3433C54.2255 47.9793 56.3624 50.1162 58.9984 50.1162H72.3154C80.5997 50.1162 87.3154 43.4005 87.3154 35.1162V15C87.3154 6.71573 80.5996 0 72.3154 0H15.9613ZM10.9845 22.4936C10.9845 17.3097 15.1869 13.1073 20.3709 13.1073C25.5548 13.1073 29.7572 17.3097 29.7572 22.4936C29.7572 27.6776 25.5548 31.88 20.3709 31.88C15.1869 31.88 10.9845 27.6776 10.9845 22.4936ZM67.3025 13.1074C62.1185 13.1074 57.9161 17.3098 57.9161 22.4937C57.9161 27.6776 62.1185 31.88 67.3025 31.88C72.4864 31.88 76.6888 27.6776 76.6888 22.4937C76.6888 17.3098 72.4864 13.1074 67.3025 13.1074Z"/>
</mask>
<path d="M3.9613 15C3.9613 8.37258 9.33389 3 15.9613 3V-3C6.02018 -3 -2.0387 5.05888 -2.0387 15H3.9613ZM3.9613 35.1162V15H-2.0387V35.1162H3.9613ZM15.9613 47.1162C9.3339 47.1162 3.9613 41.7436 3.9613 35.1162H-2.0387C-2.0387 45.0573 6.0202 53.1162 15.9613 53.1162V47.1162ZM28.7276 47.1162H15.9613V53.1162H28.7276V47.1162ZM30.5005 45.3433C30.5005 46.3225 29.7068 47.1162 28.7276 47.1162V53.1162C33.0205 53.1162 36.5005 49.6362 36.5005 45.3433H30.5005ZM43.863 31.9808C36.4831 31.9808 30.5005 37.9634 30.5005 45.3433H36.5005C36.5005 41.2771 39.7968 37.9808 43.863 37.9808V31.9808ZM57.2255 45.3433C57.2255 37.9634 51.2429 31.9808 43.863 31.9808V37.9808C47.9292 37.9808 51.2255 41.2771 51.2255 45.3433H57.2255ZM58.9984 47.1162C58.0193 47.1162 57.2255 46.3225 57.2255 45.3433H51.2255C51.2255 49.6362 54.7055 53.1162 58.9984 53.1162V47.1162ZM72.3154 47.1162H58.9984V53.1162H72.3154V47.1162ZM84.3154 35.1162C84.3154 41.7436 78.9428 47.1162 72.3154 47.1162V53.1162C82.2565 53.1162 90.3154 45.0573 90.3154 35.1162H84.3154ZM84.3154 15V35.1162H90.3154V15H84.3154ZM72.3154 3C78.9428 3 84.3154 8.37259 84.3154 15H90.3154C90.3154 5.05887 82.2565 -3 72.3154 -3V3ZM15.9613 3H72.3154V-3H15.9613V3ZM20.3709 10.1073C13.5301 10.1073 7.98455 15.6529 7.98455 22.4936H13.9845C13.9845 18.9666 16.8438 16.1073 20.3709 16.1073V10.1073ZM32.7572 22.4936C32.7572 15.6529 27.2116 10.1073 20.3709 10.1073V16.1073C23.8979 16.1073 26.7572 18.9666 26.7572 22.4936H32.7572ZM20.3709 34.88C27.2116 34.88 32.7572 29.3344 32.7572 22.4936H26.7572C26.7572 26.0207 23.8979 28.88 20.3709 28.88V34.88ZM7.98455 22.4936C7.98455 29.3344 13.5301 34.88 20.3709 34.88V28.88C16.8438 28.88 13.9845 26.0207 13.9845 22.4936H7.98455ZM60.9161 22.4937C60.9161 18.9666 63.7754 16.1074 67.3025 16.1074V10.1074C60.4617 10.1074 54.9161 15.6529 54.9161 22.4937H60.9161ZM67.3025 28.88C63.7754 28.88 60.9161 26.0208 60.9161 22.4937H54.9161C54.9161 29.3345 60.4617 34.88 67.3025 34.88V28.88ZM73.6888 22.4937C73.6888 26.0208 70.8295 28.88 67.3025 28.88V34.88C74.1432 34.88 79.6888 29.3345 79.6888 22.4937H73.6888ZM67.3025 16.1074C70.8295 16.1074 73.6888 18.9666 73.6888 22.4937H79.6888C79.6888 15.6529 74.1432 10.1074 67.3025 10.1074V16.1074Z" fill="white" mask="url(#path-1-inside-1)"/>
</svg>
