<svg width="186" height="150" viewBox="0 0 186 150" fill="none" xmlns="http://www.w3.org/2000/svg">
<path d="M79.5 81.0622C84.1667 78.3679 84.1667 71.6321 79.5 68.9378L40.5 46.4212C35.8333 43.7269 30 47.0947 30 52.4833L30 97.5167C30 102.905 35.8333 106.273 40.5 103.579L79.5 81.0622Z" fill="#bbbbbb"/>
<path fill-rule="evenodd" clip-rule="evenodd" d="M55 0C48.3726 0 43 5.37258 43 12V31.6987C43 37.0577 45.859 42.0096 50.5 44.6891L86.5 65.4737C93.8333 69.7076 93.8333 80.2924 86.5 84.5263L50.5 105.311C45.859 107.99 43 112.942 43 118.301V138C43 144.627 48.3726 150 55 150H131C137.627 150 143 144.627 143 138V12C143 5.37258 137.627 0 131 0H55ZM113 27.5V33.5H122.925C122.525 36.0725 119.925 41.05 113 41.05C107.025 41.05 102.15 36.1025 102.15 30C102.15 23.9 107.025 18.95 113 18.95C116.4 18.95 118.675 20.4 119.975 21.65L124.725 17.075C121.675 14.225 117.725 12.5 113 12.5C103.325 12.5 95.5 20.325 95.5 30C95.5 39.675 103.325 47.5 113 47.5C123.1 47.5 129.802 40.4 129.802 30.4C129.802 29.25 129.675 28.375 129.525 27.5H113Z" fill="#bbbbbb"/>
</svg>
