<svg width="191" height="150" viewBox="0 0 191 150" fill="none" xmlns="http://www.w3.org/2000/svg">
<path d="M180.5 81.0622C185.167 78.3679 185.167 71.6321 180.5 68.9378L141.5 46.4212C136.833 43.7269 131 47.0947 131 52.4833V97.5167C131 102.905 136.833 106.273 141.5 103.579L180.5 81.0622Z" fill="#bbbbbb"/>
<path fill-rule="evenodd" clip-rule="evenodd" d="M55 0C48.3726 0 43 5.37258 43 12V138C43 144.627 48.3726 150 55 150H131C137.627 150 143 144.627 143 138V138C143 127.227 127.551 117.42 122.632 107.836C121.596 105.817 121 103.502 121 100.981V49.0192C121 46.4977 121.596 44.1826 122.632 42.1642C127.551 32.5803 143 22.7726 143 12V12C143 5.37258 137.627 0 131 0H55ZM73 27.5V33.5H82.925C82.525 36.0725 79.925 41.05 73 41.05C67.025 41.05 62.15 36.1025 62.15 30C62.15 23.9 67.025 18.95 73 18.95C76.4 18.95 78.675 20.4 79.975 21.65L84.725 17.075C81.675 14.225 77.725 12.5 73 12.5C63.325 12.5 55.5 20.325 55.5 30C55.5 39.675 63.325 47.5 73 47.5C83.1 47.5 89.8025 40.4 89.8025 30.4C89.8025 29.25 89.675 28.375 89.525 27.5H73Z" fill="#bbbbbb"/>
</svg>
